<svg width="125" height="125" viewBox="0 0 125 125" fill="none" xmlns="http://www.w3.org/2000/svg">
<g clip-path="url(#clip0_9_224)">
<path d="M95.7031 0H29.2969C13.1167 0 0 13.1167 0 29.2969V95.7031C0 111.883 13.1167 125 29.2969 125H95.7031C111.883 125 125 111.883 125 95.7031V29.2969C125 13.1167 111.883 0 95.7031 0Z" fill="#0277BD"/>
<path d="M26.2466 50.1226L27.644 65.7192H62.5469V50.1226H26.2466ZM62.5464 18.5547H23.4375L24.8555 34.1514H62.5464V18.5547ZM62.5464 106.856V90.6289L62.478 90.647L45.1079 85.957L43.9976 73.5176H28.3408L30.5259 98.0068L62.4746 106.876L62.5464 106.856Z" fill="#EBEBEB"/>
<path d="M81.6982 65.7192L79.8877 85.9468L62.4927 90.6421V106.868L94.4668 98.0068L94.7012 95.3716L98.3662 54.311L98.7466 50.1226L101.562 18.5547H62.4927V34.1514H84.4697L83.0508 50.1226H62.4927V65.7192H81.6982Z" fill="white"/>
</g>
<defs>
<clipPath id="clip0_9_224">
<rect width="125" height="125" fill="white"/>
</clipPath>
</defs>
</svg>
