<svg width="125" height="125" viewBox="0 0 125 125" fill="none" xmlns="http://www.w3.org/2000/svg">
<g clip-path="url(#clip0_9_452)">
<path d="M125 96.8124C123.181 97.5005 121.173 97.499 119.354 96.8081C117.536 96.1173 116.034 94.7849 115.13 93.0624L97.1615 68.2134L94.5574 64.7395L73.7084 93.0937C72.8594 94.7439 71.4383 96.0285 69.711 96.7071C67.9837 97.3858 66.0683 97.4121 64.323 96.7812L91.1876 60.7395L66.198 28.1822C67.9948 27.5347 69.9599 27.5261 71.7624 28.1579C73.5648 28.7897 75.0945 30.0233 76.0938 31.6509L94.7188 56.8072L113.448 31.7551C114.304 30.1342 115.725 28.8842 117.442 28.2428C119.159 27.6013 121.052 27.6131 122.76 28.2759L113.063 41.1457L99.9271 58.2447C99.5624 58.5701 99.2705 58.9689 99.0706 59.415C98.8707 59.8611 98.7674 60.3444 98.7674 60.8332C98.7674 61.3221 98.8707 61.8054 99.0706 62.2515C99.2705 62.6976 99.5624 63.0964 99.9271 63.4218L124.948 96.8176L125 96.8124ZM0.0104791 60.2916L2.19798 49.4843C8.2084 28.1145 32.7084 19.2239 49.5626 32.453C59.4324 40.2082 61.8959 51.1874 61.4115 63.5624H5.81256C4.91152 85.6614 20.8594 99.0051 41.2501 92.1874C44.5556 90.9976 47.5143 89.0064 49.8613 86.3922C52.2082 83.778 53.8701 80.6224 54.698 77.2082C55.7761 73.7395 57.5521 73.1457 60.8126 74.1457C60.2692 78.3769 58.7735 82.4298 56.4379 85.9995C54.1023 89.5692 50.9876 92.5628 47.3282 94.7551C41.2835 98.0615 34.3481 99.372 27.5137 98.4992C20.6793 97.6264 14.2959 94.6151 9.2761 89.8957C4.31272 84.3092 1.31296 77.2525 0.734437 69.802C0.734437 68.578 0.317771 67.4322 0.0365208 66.3332C0.0111668 64.3212 -0.000986235 62.309 6.24806e-05 60.2968L0.0104791 60.2916ZM5.88027 58.802H56.1615C55.849 42.7811 45.7396 31.4166 32.2553 31.3124C17.2449 31.1041 6.50527 42.2186 5.84381 58.7291L5.88027 58.802Z" fill="white"/>
</g>
<defs>
<clipPath id="clip0_9_452">
<rect width="125" height="125" fill="white"/>
</clipPath>
</defs>
</svg>
