<svg width="50" height="51" viewBox="0 0 50 51" fill="#fff" xmlns="http://www.w3.org/2000/svg">
<g clip-path="url(#clip0_3_117)">
<path d="M25 0.5C11.1875 0.5 0 11.6875 0 25.5C0 36.5625 7.15625 45.9062 17.0938 49.2188C18.3438 49.4375 18.8125 48.6875 18.8125 48.0312C18.8125 47.4375 18.7812 45.4688 18.7812 43.375C12.5 44.5312 10.875 41.8438 10.375 40.4375C10.0938 39.7188 8.875 37.5 7.8125 36.9062C6.9375 36.4375 5.6875 35.2812 7.78125 35.25C9.75 35.2188 11.1562 37.0625 11.625 37.8125C13.875 41.5938 17.4688 40.5312 18.9062 39.875C19.125 38.25 19.7812 37.1562 20.5 36.5312C14.9375 35.9062 9.125 33.75 9.125 24.1875C9.125 21.4688 10.0938 19.2188 11.6875 17.4688C11.4375 16.8438 10.5625 14.2812 11.9375 10.8438C11.9375 10.8438 14.0312 10.1875 18.8125 13.4062C20.8125 12.8438 22.9375 12.5625 25.0625 12.5625C27.1875 12.5625 29.3125 12.8438 31.3125 13.4062C36.0938 10.1562 38.1875 10.8438 38.1875 10.8438C39.5625 14.2812 38.6875 16.8438 38.4375 17.4688C40.0312 19.2188 41 21.4375 41 24.1875C41 33.7812 35.1562 35.9062 29.5938 36.5312C30.5 37.3125 31.2812 38.8125 31.2812 41.1562C31.2812 44.5 31.25 47.1875 31.25 48.0312C31.25 48.6875 31.7188 49.4688 32.9688 49.2188C37.932 47.5437 42.2448 44.3542 45.3001 40.0992C48.3553 35.8443 49.9991 30.7382 50 25.5C50 11.6875 38.8125 0.5 25 0.5Z" fill="black"/>
</g>
<defs>
<clipPath id="clip0_3_117">
<rect width="50" height="50" fill="white" transform="translate(0 0.5)"/>
</clipPath>
</defs>
</svg>
