<svg width="125" height="125" viewBox="0 0 125 125" fill="none" xmlns="http://www.w3.org/2000/svg">
<path d="M62.5 0C27.9688 0 0 27.9688 0 62.5C0 90.1562 17.8906 113.516 42.7344 121.797C45.8594 122.344 47.0312 120.469 47.0312 118.828C47.0312 117.344 46.9531 112.422 46.9531 107.188C31.25 110.078 27.1875 103.359 25.9375 99.8438C25.2344 98.0469 22.1875 92.5 19.5312 91.0156C17.3438 89.8438 14.2188 86.9531 19.4531 86.875C24.375 86.7969 27.8906 91.4062 29.0625 93.2812C34.6875 102.734 43.6719 100.078 47.2656 98.4375C47.8125 94.375 49.4531 91.6406 51.25 90.0781C37.3438 88.5156 22.8125 83.125 22.8125 59.2188C22.8125 52.4219 25.2344 46.7969 29.2188 42.4219C28.5938 40.8594 26.4062 34.4531 29.8438 25.8594C29.8438 25.8594 35.0781 24.2188 47.0312 32.2656C52.0312 30.8594 57.3438 30.1562 62.6563 30.1562C67.9688 30.1562 73.2812 30.8594 78.2812 32.2656C90.2344 24.1406 95.4688 25.8594 95.4688 25.8594C98.9062 34.4531 96.7188 40.8594 96.0938 42.4219C100.078 46.7969 102.5 52.3438 102.5 59.2188C102.5 83.2031 87.8906 88.5156 73.9844 90.0781C76.25 92.0312 78.2031 95.7812 78.2031 101.641C78.2031 110 78.125 116.719 78.125 118.828C78.125 120.469 79.2969 122.422 82.4219 121.797C94.8299 117.609 105.612 109.635 113.25 98.9981C120.888 88.3607 124.998 75.5956 125 62.5C125 27.9688 97.0312 0 62.5 0Z" fill="white"/>
</svg>
