<svg width="125" height="125" viewBox="0 0 125 125" fill="none" xmlns="http://www.w3.org/2000/svg">
<g clip-path="url(#clip0_9_229)">
<path d="M95.7031 0H29.2969C13.1167 0 0 13.1167 0 29.2969V95.7031C0 111.883 13.1167 125 29.2969 125H95.7031C111.883 125 125 111.883 125 95.7031V29.2969C125 13.1167 111.883 0 95.7031 0Z" fill="#E14E1D"/>
<path d="M23.4375 18.5547L27.6416 65.7192H81.6992L79.8853 85.9487L62.48 90.6548L45.1074 85.9556L43.9458 72.9663H28.291L30.5298 98.0059L62.4766 106.879L94.4639 98.0059L98.7524 50.1245H41.9062L40.479 34.1528H100.166L101.562 18.5547H23.4375Z" fill="white"/>
<path d="M62.5 18.5547H23.4375L27.6416 65.7192H62.5V50.1245H41.9062L40.479 34.1528H62.5V18.5547ZM62.5 90.6479L62.48 90.6548L45.1074 85.9556L43.9458 72.9663H28.291L30.5298 98.0059L62.4766 106.879L62.5005 106.872V90.6479H62.5Z" fill="#EBEBEB"/>
</g>
<defs>
<clipPath id="clip0_9_229">
<rect width="125" height="125" fill="white"/>
</clipPath>
</defs>
</svg>
