<svg width="125" height="125" viewBox="0 0 125 125" fill="none" xmlns="http://www.w3.org/2000/svg">
<path d="M1.375 21.375C1.375 10.3293 10.3293 1.375 21.375 1.375H103.625C114.671 1.375 123.625 10.3293 123.625 21.375V103.626C123.625 114.672 114.671 123.626 103.625 123.626H21.375C10.3293 123.626 1.375 114.672 1.375 103.626V21.375Z" fill="#F0DB4F"/>
<path d="M113.62 94.4686C112.725 88.8915 109.088 84.2069 98.3154 79.8388C94.5732 78.119 90.4014 76.8876 89.1582 74.0516C88.7168 72.4013 88.6582 71.4716 88.9375 70.4725C89.7393 67.2304 93.6094 66.2196 96.6768 67.1493C98.6523 67.8114 100.522 69.3339 101.65 71.7626C106.926 68.3466 106.915 68.369 110.599 66.0214C109.25 63.9306 108.53 62.9657 107.647 62.0712C104.475 58.5272 100.151 56.702 93.2373 56.8417L89.6357 57.3075C86.1846 58.1796 82.8955 59.9911 80.9668 62.4198C75.1797 68.9862 76.8301 80.4784 83.8721 85.2079C90.8096 90.4149 101.001 91.5995 102.303 96.4686C103.569 102.43 97.9219 104.359 92.3086 103.674C88.1719 102.813 85.8711 100.711 83.3838 96.8876C78.8057 99.537 78.8057 99.537 74.0986 102.244C75.2148 104.684 76.3877 105.789 78.2588 107.903C87.1143 116.886 109.274 116.444 113.249 102.849C113.41 102.382 114.48 99.2684 113.62 94.4686ZM67.834 57.5614H56.3994L56.3525 87.1239C56.3525 93.411 56.6777 99.1747 55.6553 100.941C53.9824 104.416 49.6475 103.985 47.6719 103.311C45.6611 102.323 44.6387 100.918 43.4541 98.9315C43.1289 98.3612 42.8848 97.9198 42.8027 97.8856L33.5059 103.579C35.0518 106.752 37.3291 109.506 40.2461 111.295C44.6035 113.91 50.46 114.712 56.585 113.306C60.5713 112.144 64.0107 109.739 65.8115 106.078C68.415 101.278 67.8564 95.4686 67.833 89.0429C67.8916 78.5595 67.834 68.078 67.834 57.5614Z" fill="#323330"/>
</svg>
