<svg width="50" height="51" viewBox="0 0 50 51" fill="none" xmlns="http://www.w3.org/2000/svg">
<g clip-path="url(#clip0_3_119)">
<path d="M38.2812 0.5H11.7188C5.24666 0.5 0 5.74666 0 12.2188V38.7812C0 45.2533 5.24666 50.5 11.7188 50.5H38.2812C44.7533 50.5 50 45.2533 50 38.7812V12.2188C50 5.74666 44.7533 0.5 38.2812 0.5Z" fill="white"/>
<path d="M38.2812 0.5H11.7188C5.24666 0.5 0 5.74666 0 12.2188V38.7812C0 45.2533 5.24666 50.5 11.7188 50.5H38.2812C44.7533 50.5 50 45.2533 50 38.7812V12.2188C50 5.74666 44.7533 0.5 38.2812 0.5Z" fill="#0A66C2"/>
<path d="M36.0771 43.0166H41.7939C42.0011 43.0166 42.1998 42.9343 42.3463 42.7878C42.4928 42.6414 42.5751 42.4427 42.5752 42.2355L42.5781 30.157C42.5781 23.8439 41.2178 18.9914 33.8402 18.9914C31.0357 18.8871 28.391 20.3328 26.9639 22.7469C26.9569 22.7586 26.9463 22.7677 26.9336 22.7728C26.921 22.778 26.907 22.7788 26.8938 22.7752C26.8807 22.7717 26.869 22.7639 26.8607 22.7531C26.8523 22.7423 26.8478 22.7291 26.8477 22.7154V20.3555C26.8477 20.1483 26.7653 19.9496 26.6188 19.803C26.4723 19.6565 26.2736 19.5742 26.0664 19.5742H20.6412C20.434 19.5742 20.2353 19.6565 20.0888 19.803C19.9423 19.9496 19.86 20.1483 19.86 20.3555V42.2344C19.86 42.4416 19.9423 42.6403 20.0888 42.7868C20.2353 42.9333 20.434 43.0156 20.6412 43.0156H26.3576C26.5648 43.0156 26.7635 42.9333 26.91 42.7868C27.0566 42.6403 27.1389 42.4416 27.1389 42.2344V31.4193C27.1389 28.3613 27.7189 25.3998 31.5102 25.3998C35.2475 25.3998 35.2959 28.899 35.2959 31.6174V42.2354C35.2959 42.4426 35.3782 42.6413 35.5247 42.7878C35.6712 42.9343 35.8699 43.0166 36.0771 43.0166ZM7.42188 12.1459C7.42188 14.4633 9.32949 16.3699 11.6469 16.3699C13.9637 16.3697 15.8701 14.4619 15.8701 12.1451C15.8697 9.82832 13.9631 7.92188 11.6461 7.92188C9.32852 7.92188 7.42188 9.82871 7.42188 12.1459ZM8.78105 43.0166H14.5051C14.7123 43.0166 14.911 42.9343 15.0575 42.7878C15.204 42.6413 15.2863 42.4426 15.2863 42.2354V20.3555C15.2863 20.1483 15.204 19.9496 15.0575 19.803C14.911 19.6565 14.7123 19.5742 14.5051 19.5742H8.78105C8.57385 19.5742 8.37514 19.6565 8.22863 19.803C8.08211 19.9496 7.9998 20.1483 7.9998 20.3555V42.2354C7.9998 42.4426 8.08211 42.6413 8.22863 42.7878C8.37514 42.9343 8.57385 43.0166 8.78105 43.0166Z" fill="white"/>
</g>
<defs>
<clipPath id="clip0_3_119">
<rect width="50" height="50" fill="white" transform="translate(0 0.5)"/>
</clipPath>
</defs>
</svg>
