<svg width="125" height="125" viewBox="0 0 125 125" fill="none" xmlns="http://www.w3.org/2000/svg">
<g clip-path="url(#clip0_9_218)">
<path d="M37.5 37.5L40.875 35.0583C40.3587 34.3452 39.6299 33.814 38.793 33.5408C37.9561 33.2676 37.0542 33.2665 36.2166 33.5377C35.379 33.8089 34.6489 34.3383 34.1309 35.0502C33.6129 35.762 33.3337 36.6196 33.3333 37.5H37.5ZM62.5 116.667C48.1341 116.667 34.3566 110.96 24.1984 100.802C14.0402 90.6434 8.33333 76.8659 8.33333 62.5H0C0 79.076 6.5848 94.9731 18.3058 106.694C30.0268 118.415 45.924 125 62.5 125V116.667ZM116.667 62.5C116.667 69.6133 115.266 76.6569 112.543 83.2287C109.821 89.8005 105.831 95.7718 100.802 100.802C95.7718 105.831 89.8005 109.821 83.2287 112.543C76.6569 115.266 69.6133 116.667 62.5 116.667V125C79.076 125 94.9731 118.415 106.694 106.694C118.415 94.9731 125 79.076 125 62.5H116.667ZM62.5 8.33333C69.6133 8.33333 76.6569 9.7344 83.2287 12.4565C89.8005 15.1787 95.7718 19.1685 100.802 24.1984C105.831 29.2282 109.821 35.1995 112.543 41.7713C115.266 48.3431 116.667 55.3867 116.667 62.5H125C125 45.924 118.415 30.0268 106.694 18.3058C94.9731 6.5848 79.076 0 62.5 0V8.33333ZM62.5 0C45.924 0 30.0268 6.5848 18.3058 18.3058C6.5848 30.0268 0 45.924 0 62.5H8.33333C8.33333 48.1341 14.0402 34.3566 24.1984 24.1984C34.3566 14.0402 48.1341 8.33333 62.5 8.33333V0ZM41.6667 100V37.5H33.3333V100H41.6667ZM34.125 39.9417L88.2917 114.942L95.0417 110.058L40.875 35.0583L34.125 39.9417ZM83.3333 33.3333V83.3333H91.6667V33.3333H83.3333Z" fill="black"/>
</g>
<defs>
<clipPath id="clip0_9_218">
<rect width="125" height="125" fill="white"/>
</clipPath>
</defs>
</svg>
