<svg width="125" height="125" viewBox="0 0 125 125" fill="none" xmlns="http://www.w3.org/2000/svg">
<path d="M110.128 29.623L67.0645 4.61816C64.3486 3.07129 60.8125 3.07129 58.0752 4.61816L14.5518 29.623C11.749 31.2354 9.76562 34.2656 9.76562 37.5068V87.4502C9.76562 90.6914 11.8008 93.7227 14.6035 95.3438L26.1025 101.875C31.5986 104.582 33.541 104.582 36.042 104.582C44.1797 104.582 48.8281 99.6611 48.8281 91.0781V41.7715C48.8281 41.0752 48.4658 40.0391 47.7822 40.0391H42.291C41.5957 40.0391 40.0391 41.0752 40.0391 41.7705V91.0771C40.0391 94.8818 36.5977 98.668 30.166 95.4521L18.2842 88.6035C17.8701 88.3789 17.5781 87.9268 17.5781 87.4502V37.5068C17.5781 37.0361 18.1201 36.5635 18.5371 36.3223L61.9199 11.3604C62.3252 11.1309 62.9209 11.1309 63.3252 11.3604L106.179 36.3164C106.589 36.5635 106.444 37.0215 106.444 37.5068V87.4502C106.444 87.9268 106.623 88.3906 106.218 88.6201L63.165 113.597C62.7959 113.818 62.3379 113.818 61.9336 113.597L50.8916 107.006C50.5586 106.812 50.1631 106.743 49.8438 106.922C46.7715 108.663 46.2051 108.895 43.3232 109.894C42.6143 110.141 41.5684 110.569 43.7236 111.777L58.1748 120.326C59.5545 121.123 61.1196 121.543 62.7129 121.543C64.3164 121.543 65.8867 121.127 67.2705 120.326L110.127 95.3438C112.93 93.7109 114.258 90.6914 114.258 87.4502V37.5068C114.258 34.2656 112.93 31.2432 110.128 29.623ZM76.084 79.5361C64.6328 79.5361 62.1104 76.377 61.2695 70.6826C61.1719 70.0693 60.6514 69.3359 60.0273 69.3359H54.4307C53.7383 69.3359 53.1816 70.1758 53.1816 70.8652C53.1816 78.1562 57.1455 86.9902 76.085 86.9902C89.7949 86.9902 97.6553 81.6631 97.6553 72.2354C97.6553 62.8877 91.3398 60.4346 78.0439 58.6748C64.6045 56.8984 63.2393 56.001 63.2393 52.8525C63.2393 50.2568 64.3955 46.7949 74.3467 46.7949C83.2383 46.7949 86.5156 48.7031 87.8643 54.6963C87.9795 55.2598 88.4941 55.6641 89.0752 55.6641H94.6943C95.04 55.6641 95.3701 55.5244 95.6123 55.2773C95.8467 55.0117 95.9707 54.6787 95.9395 54.3213C95.0693 44.001 88.2129 39.1914 74.3457 39.1914C62.0107 39.1914 54.6523 44.4004 54.6523 53.1318C54.6523 62.6025 61.9736 65.2197 73.8145 66.3906C87.9795 67.7793 89.0811 69.8496 89.0811 72.6357C89.0811 77.4746 85.1963 79.5361 76.084 79.5361Z" fill="#579906"/>
</svg>
