<svg width="125" height="125" viewBox="0 0 125 125" fill="none" xmlns="http://www.w3.org/2000/svg">
<path d="M62.5 73.6328C68.6485 73.6328 73.6328 68.6485 73.6328 62.5C73.6328 56.3515 68.6485 51.3672 62.5 51.3672C56.3515 51.3672 51.3672 56.3515 51.3672 62.5C51.3672 68.6485 56.3515 73.6328 62.5 73.6328Z" fill="#00B3E4"/>
<path d="M104.785 44.1406C102.637 43.3594 100.391 42.5781 98.0469 41.8945C98.6328 39.5508 99.1211 37.207 99.5117 34.9609C101.562 22.0703 99.3164 12.9883 93.0664 9.47266C91.2109 8.39844 89.1602 7.91016 86.8164 7.91016C79.9805 7.91016 71.2891 12.9883 62.5 21.4844C53.7109 12.9883 45.0195 7.91016 38.1836 7.91016C35.8398 7.91016 33.7891 8.39844 31.9336 9.47266C25.6836 13.0859 23.4375 22.168 25.4883 34.9609C25.8789 37.207 26.3672 39.5508 26.9531 41.8945C24.6094 42.5781 22.3633 43.2617 20.2148 44.1406C8.00781 48.8281 1.36719 55.2734 1.36719 62.5C1.36719 69.7266 8.10547 76.1719 20.2148 80.8594C22.3633 81.6406 24.6094 82.4219 26.9531 83.1055C26.3672 85.4492 25.8789 87.793 25.4883 90.0391C23.4375 102.93 25.6836 112.012 31.9336 115.527C33.7891 116.602 35.8398 117.09 38.1836 117.09C45.1172 117.09 53.8086 112.012 62.5 103.516C71.2891 112.012 79.9805 117.09 86.8164 117.09C89.1602 117.09 91.2109 116.602 93.0664 115.527C99.3164 111.914 101.562 102.832 99.5117 90.0391C99.1211 87.793 98.6328 85.4492 98.0469 83.1055C100.391 82.4219 102.637 81.7383 104.785 80.8594C116.992 76.1719 123.633 69.7266 123.633 62.5C123.633 55.2734 116.992 48.8281 104.785 44.1406ZM90.332 14.3555C94.3359 16.6992 95.7031 23.9258 94.043 34.1797C93.75 36.2305 93.2617 38.3789 92.6758 40.625C87.5977 39.4531 82.2266 38.6719 76.5625 38.1836C73.2422 33.4961 69.8242 29.2969 66.4062 25.4883C73.6328 18.3594 80.957 13.4766 86.9141 13.4766C88.1836 13.4766 89.3555 13.7695 90.332 14.3555ZM79.3945 72.2656C77.6367 75.3906 75.5859 78.5156 73.4375 81.6406C69.8242 81.9336 66.2109 82.0312 62.5 82.0312C58.6914 82.0312 55.0781 81.9336 51.5625 81.6406C49.4141 78.5156 47.4609 75.3906 45.7031 72.2656C43.8477 69.043 42.0898 65.7227 40.5273 62.5C42.0898 59.2773 43.8477 55.957 45.7031 52.7344C47.4609 49.6094 49.5117 46.4844 51.6602 43.3594C55.2734 43.0664 58.8867 42.9688 62.5977 42.9688C66.4062 42.9688 70.0195 43.0664 73.5352 43.3594C75.6836 46.4844 77.6367 49.6094 79.3945 52.7344C81.25 55.957 83.0078 59.2773 84.5703 62.5C82.9102 65.7227 81.25 68.9453 79.3945 72.2656ZM87.5 69.043C88.9648 72.4609 90.1367 75.7812 91.2109 79.1016C87.8906 79.8828 84.375 80.4688 80.6641 80.957C81.8359 79.1016 83.1055 77.1484 84.1797 75.0977C85.3516 73.0469 86.4258 70.9961 87.5 69.043ZM62.5 95.5078C60.1562 92.9688 57.9102 90.2344 55.7617 87.4023C58.0078 87.5 60.2539 87.5977 62.5 87.5977C64.7461 87.5977 66.9922 87.5 69.2383 87.4023C67.0898 90.2344 64.8438 92.9688 62.5 95.5078ZM44.3359 80.8594C40.625 80.3711 37.1094 79.7852 33.7891 79.0039C34.8633 75.7812 36.0352 72.3633 37.5 68.9453C38.5742 70.8984 39.6484 72.9492 40.8203 74.9023C41.9922 77.0508 43.1641 78.9063 44.3359 80.8594ZM37.5 55.957C36.0352 52.5391 34.8633 49.2188 33.7891 45.8984C37.1094 45.1172 40.625 44.5312 44.3359 44.043C43.1641 45.8984 41.8945 47.8516 40.8203 49.9023C39.6484 51.9531 38.5742 54.0039 37.5 55.957ZM62.5 29.4922C64.8438 32.0312 67.0898 34.7656 69.2383 37.5977C66.9922 37.5 64.7461 37.4023 62.5 37.4023C60.2539 37.4023 58.0078 37.5 55.7617 37.5977C57.9102 34.7656 60.1562 32.0312 62.5 29.4922ZM84.1797 50L80.6641 44.1406C84.375 44.6289 87.8906 45.2148 91.2109 45.9961C90.1367 49.2188 88.9648 52.6367 87.5 56.0547C86.4258 54.0039 85.3516 51.9531 84.1797 50ZM30.957 34.1797C29.2969 23.9258 30.6641 16.6992 34.668 14.3555C35.6445 13.7695 36.8164 13.4766 38.0859 13.4766C43.9453 13.4766 51.2695 18.2617 58.5938 25.4883C55.1758 29.1992 51.7578 33.4961 48.4375 38.1836C42.7734 38.6719 37.4023 39.5508 32.3242 40.625C31.7383 38.3789 31.3477 36.2305 30.957 34.1797ZM6.83594 62.5C6.83594 57.9102 12.4023 53.0273 22.168 49.4141C24.1211 48.6328 26.2695 47.9492 28.418 47.3633C29.9805 52.2461 31.9336 57.4219 34.2773 62.5977C31.9336 67.7734 29.8828 72.8516 28.418 77.7344C14.9414 73.8281 6.83594 67.9688 6.83594 62.5ZM34.668 110.645C30.6641 108.301 29.2969 101.074 30.957 90.8203C31.25 88.7695 31.7383 86.6211 32.3242 84.375C37.4023 85.5469 42.7734 86.3281 48.4375 86.8164C51.7578 91.5039 55.1758 95.7031 58.5938 99.5117C51.3672 106.641 44.043 111.523 38.0859 111.523C36.8164 111.523 35.6445 111.23 34.668 110.645ZM94.043 90.8203C95.7031 101.074 94.3359 108.301 90.332 110.645C89.3555 111.23 88.1836 111.523 86.9141 111.523C81.0547 111.523 73.7305 106.738 66.4062 99.5117C69.8242 95.8008 73.2422 91.5039 76.5625 86.8164C82.2266 86.3281 87.5977 85.4492 92.6758 84.375C93.2617 86.6211 93.6523 88.7695 94.043 90.8203ZM102.832 75.5859C100.879 76.3672 98.7305 77.0508 96.582 77.6367C95.0195 72.7539 93.0664 67.5781 90.7227 62.4023C93.0664 57.2266 95.1172 52.1484 96.582 47.2656C110.059 51.1719 118.164 57.0312 118.164 62.5C118.164 67.0898 112.5 71.9727 102.832 75.5859Z" fill="#00B3E4"/>
</svg>
