<svg width="125" height="125" viewBox="0 0 125 125" fill="none" xmlns="http://www.w3.org/2000/svg">
<path d="M35.1562 53.5156C38.8021 38.9323 47.9167 31.6406 62.5 31.6406C84.375 31.6406 87.1094 48.0469 98.0469 50.7812C105.339 52.6042 111.719 49.8698 117.188 42.5781C113.542 57.1615 104.427 64.4531 89.8438 64.4531C67.9688 64.4531 65.2344 48.0469 54.2969 45.3125C47.0052 43.4896 40.625 46.224 35.1562 53.5156ZM7.8125 86.3281C11.4583 71.7448 20.5729 64.4531 35.1562 64.4531C57.0312 64.4531 59.7656 80.8594 70.7031 83.5938C77.9948 85.4167 84.375 82.6823 89.8438 75.3906C86.1979 89.974 77.0833 97.2656 62.5 97.2656C40.625 97.2656 37.8906 80.8594 26.9531 78.125C19.6615 76.3021 13.2812 79.0365 7.8125 86.3281Z" fill="#44A8B3"/>
</svg>
