<svg width="256" height="209" viewBox="0 0 256 209" fill="none" xmlns="http://www.w3.org/2000/svg">
<g clip-path="url(#clip0_39_2)">
<path d="M256 25.4498C246.414 29.6965 236.246 32.4841 225.834 33.7198C236.679 27.2198 245.006 16.9268 248.927 4.66278C238.618 10.7806 227.338 15.091 215.576 17.4078C205.995 7.20078 192.346 0.821777 177.239 0.821777C148.233 0.821777 124.716 24.3378 124.716 53.3418C124.716 57.4588 125.181 61.4668 126.076 65.3118C82.426 63.1208 43.726 42.2118 17.821 10.4358C13.301 18.1928 10.711 27.2158 10.711 36.8398C10.711 55.0618 19.984 71.1368 34.076 80.5558C25.7355 80.2946 17.5785 78.0419 10.286 73.9858C10.283 74.2058 10.283 74.4258 10.283 74.6468C10.283 100.094 28.387 121.322 52.413 126.147C44.6789 128.25 36.5663 128.558 28.695 127.047C35.378 147.913 54.775 163.097 77.757 163.522C59.782 177.608 37.135 186.005 12.529 186.005C8.289 186.005 4.109 185.756 0 185.271C23.243 200.173 50.85 208.868 80.51 208.868C177.117 208.868 229.944 128.837 229.944 59.4328C229.944 57.1548 229.894 54.8898 229.792 52.6378C240.074 45.2046 248.949 35.9979 256 25.4498Z" fill="#55ACEE"/>
</g>
<defs>
<clipPath id="clip0_39_2">
<rect width="256" height="209" fill="white"/>
</clipPath>
</defs>
</svg>
