<svg width="125" height="125" viewBox="0 0 125 125" fill="none" xmlns="http://www.w3.org/2000/svg">
<g clip-path="url(#clip0_9_245)">
<path d="M9.76562 0H115.234C120.628 0 125 4.37207 125 9.76562V115.234C125 120.628 120.628 125 115.234 125H9.76562C4.37207 125 0 120.628 0 115.234V9.76562C0 4.37207 4.37207 0 9.76562 0Z" fill="#3178C6"/>
<path d="M73.4951 97.8882V111.375C75.6885 112.499 78.2827 113.341 81.2773 113.903C84.272 114.465 87.4282 114.746 90.7466 114.746C93.98 114.746 97.0522 114.437 99.9624 113.819C102.873 113.201 105.425 112.182 107.618 110.764C109.811 109.345 111.547 107.49 112.827 105.2C114.106 102.911 114.746 100.08 114.746 96.7085C114.746 94.2642 114.38 92.1216 113.649 90.2812C112.926 88.4534 111.852 86.7853 110.486 85.3716C109.108 83.9385 107.456 82.6533 105.53 81.5151C103.604 80.3774 101.432 79.3027 99.0132 78.2915C97.2417 77.5605 95.6533 76.8516 94.2471 76.1631C92.8413 75.4746 91.646 74.7725 90.6621 74.0557C89.6777 73.3394 88.9185 72.5806 88.3843 71.7798C87.8501 70.979 87.583 70.0732 87.583 69.0615C87.583 68.1343 87.8218 67.2988 88.2998 66.5542C88.7778 65.8096 89.4531 65.1704 90.3247 64.6367C91.1963 64.1025 92.2646 63.6885 93.5303 63.3931C94.7954 63.0981 96.2017 62.9507 97.748 62.9507C98.873 62.9507 100.061 63.0352 101.312 63.2036C102.563 63.3721 103.822 63.6318 105.087 63.9834C106.349 64.3331 107.583 64.7769 108.778 65.311C109.937 65.8246 111.045 66.4453 112.089 67.165V54.564C110.036 53.7773 107.793 53.1943 105.361 52.8149C102.929 52.4355 100.138 52.2461 96.9888 52.2461C93.7832 52.2461 90.7466 52.5903 87.8784 53.2788C85.0103 53.9668 82.4863 55.0415 80.3071 56.5024C78.1279 57.9639 76.4058 59.8252 75.1401 62.0869C73.875 64.3486 73.2422 67.0527 73.2422 70.1997C73.2422 74.2173 74.4019 77.645 76.7222 80.4829C79.042 83.3203 82.5635 85.7227 87.2876 87.6895C89.0315 88.3997 90.7612 89.1445 92.4756 89.9233C94.0786 90.6538 95.4634 91.4121 96.6304 92.1987C97.7974 92.9854 98.7183 93.8423 99.3931 94.7695C100.068 95.6968 100.405 96.7505 100.405 97.9307C100.411 98.78 100.193 99.6158 99.7725 100.354C99.3511 101.098 98.7109 101.745 97.8535 102.292C96.9961 102.84 95.9272 103.269 94.6479 103.578C93.3687 103.887 91.8711 104.042 90.1558 104.042C87.2314 104.042 84.3354 103.529 81.4673 102.503C78.5986 101.478 75.9414 99.9395 73.4951 97.8882ZM51.0166 64.3272H68.3594V53.2227H20.0195V64.3272H37.2778V113.77H51.0166V64.3272Z" fill="white"/>
</g>
<defs>
<clipPath id="clip0_9_245">
<rect width="125" height="125" rx="20" fill="white"/>
</clipPath>
</defs>
</svg>
